<?xml version="1.0" encoding="UTF-8"?>
<svg width="32" height="32" viewBox="0 0 32 32" fill="none" xmlns="http://www.w3.org/2000/svg">
    <!-- Python Logo -->
    <path d="M16 2C8.268 2 2 8.268 2 16s6.268 14 14 14 14-6.268 14-14S23.732 2 16 2zm0 26C9.373 28 4 22.627 4 16S9.373 4 16 4s12 5.373 12 12-5.373 12-12 12z" fill="#4CAF50"/>
    <path d="M12 8.5c0-1.1.9-2 2-2h4c1.1 0 2 .9 2 2v3c0 1.1-.9 2-2 2h-4c-1.1 0-2-.9-2-2v-3zm2 0v3h4v-3h-4z" fill="#4CAF50"/>
    <path d="M12 20.5c0-1.1.9-2 2-2h4c1.1 0 2 .9 2 2v3c0 1.1-.9 2-2 2h-4c-1.1 0-2-.9-2-2v-3zm2 0v3h4v-3h-4z" fill="#4CAF50"/>
    <path d="M16 12.5c-1.1 0-2-.9-2-2V7.5c0-1.1.9-2 2-2s2 .9 2 2v3c0 1.1-.9 2-2 2z" fill="#4CAF50"/>
    <path d="M16 24.5c-1.1 0-2-.9-2-2v-3c0-1.1.9-2 2-2s2 .9 2 2v3c0 1.1-.9 2-2 2z" fill="#4CAF50"/>
</svg> 